<svg xmlns="http://www.w3.org/2000/svg" width="64" height="64" viewBox="0 0 64 64">
  <path
    d="M32 0a32 32 0 0 0-10.1 62.4c1.6.3 2.2-.7 2.2-1.6v-6.3c-8.9 1.9-10.8-4.3-10.8-4.3-1.5-3.8-3.7-4.8-3.7-4.8-3-2 .2-2 .2-2 3.3.2 5 3.4 5 3.4 2.9 4.9 7.7 3.5 9.6 2.7a6.6 6.6 0 0 1 2-4.1c-7.1-.8-14.6-3.6-14.6-15.9a12.4 12.4 0 0 1 3.3-8.6 11.5 11.5 0 0 1 .3-8.4s2.7-.9 8.8 3.3a30.6 30.6 0 0 1 16 0c6.1-4.2 8.8-3.3 8.8-3.3a11.5 11.5 0 0 1 .3 8.4 12.4 12.4 0 0 1 3.3 8.6c0 12.3-7.6 15.1-14.7 15.9a7.7 7.7 0 0 1 2.2 6v9.3c0 .9.6 1.9 2.3 1.6A32 32 0 0 0 32 0z"
    fill="#FFFFFF"
  />
</svg>

